:FULLY-SPECIFIED
:FORCE-ALL-JOINTS-BE-3DOF
:DEGREES
408
root 7.15854 13.795 -34.2327 158.496 75.1809 152.127
lfemur 19.43 -2.38301 -10.3871
ltibia 22.487 0 0
lfoot -23.3518 33.4608 0
ltoes -26.5956 0 0
rfemur -66.7031 -16.6823 8.39557
rtibia 80.0453 0 0
rfoot -14.7013 13.4645 0
rtoes 10.6387 0 0
lowerback 8.23127 4.9949 -11.8802
upperback -2.64495 5.28939 -1.31018
thorax -8.46487 3.15413 4.35477
lowerneck 0.459996 -11.6058 -11.3357
upperneck 3.30186 -15.7689 9.1297
head 2.5197 -7.88062 3.9731
lclavicle -4.25855e-14 -1.65941e-15 0
lhumerus -70.6432 -19.3079 106.544
lradius 100.281 0 0
lwrist 51.2892 0 0
lhand -10.0186 42.9343 0
lfingers 7.12502 0 0
lthumb 15.9659 72.2971 0
rclavicle -4.25855e-14 -1.65941e-15 0
rhumerus 49.7848 -4.11727 -60.1474
rradius 18.6881 0 0
rwrist 20.2904 0 0
rhand -22.2759 -32.8504 0
rfingers 7.12502 0 0
rthumb 4.14325 -62.811 0
409
root 7.16779 13.7915 -34.2408 158.717 75.1902 152.397
lfemur 19.2063 -2.4543 -10.3584
ltibia 22.8731 0 0
lfoot -23.3593 33.3678 0
ltoes -26.6551 0 0
rfemur -66.5804 -16.5868 8.3671
rtibia 79.8125 0 0
rfoot -14.5588 13.3804 0
rtoes 10.5059 0 0
lowerback 8.28376 4.96076 -11.8235
upperback -2.62378 5.25136 -1.26695
thorax -8.46435 3.13361 4.37692
lowerneck 0.484678 -11.6096 -11.3431
upperneck 3.28238 -15.7761 9.16465
head 2.51638 -7.88537 3.98602
lclavicle -4.25713e-14 -2.39366e-15 0
lhumerus -70.5059 -19.5031 106.528
lradius 100.277 0 0
lwrist 51.232 0 0
lhand -9.9659 42.9275 0
lfingers 7.12502 0 0
lthumb 16.0166 72.2859 0
rclavicle -4.25713e-14 -2.39366e-15 0
rhumerus 49.6105 -4.01039 -59.9589
rradius 19.092 0 0
rwrist 19.6922 0 0
rhand -22.0855 -32.9325 0
rfingers 7.12502 0 0
rthumb 4.32688 -62.8828 0
410
root 7.17705 13.7881 -34.249 158.983 75.192 152.713
lfemur 18.9502 -2.54269 -10.3231
ltibia 23.3079 0 0
lfoot -23.3621 33.2706 0
ltoes -26.7105 0 0
rfemur -66.453 -16.4864 8.33806
rtibia 79.5714 0 0
rfoot -14.4128 13.2949 0
rtoes 10.3461 0 0
lowerback 8.34299 4.92596 -11.7616
upperback -2.59937 5.21284 -1.22213
thorax -8.46389 3.11254 4.39764
lowerneck 0.515871 -11.6191 -11.3536
upperneck 3.25549 -15.7915 9.20994
head 2.51141 -7.89434 4.00241
lclavicle -4.2336e-14 -3.03514e-15 0
lhumerus -70.3649 -19.7184 106.5
lradius 100.277 0 0
lwrist 51.1682 0 0
lhand -9.90924 42.9216 0
lfingers 7.12502 0 0
lthumb 16.0711 72.2753 0
rclavicle -4.2336e-14 -3.03514e-15 0
rhumerus 49.4255 -3.91126 -59.7497
rradius 19.5212 0 0
rwrist 19.0505 0 0
rhand -21.886 -33.0288 0
rfingers 7.12502 0 0
rthumb 4.51922 -62.9681 0
411
root 7.1863 13.7847 -34.2571 159.297 75.1858 153.078
lfemur 18.6608 -2.64898 -10.2808
ltibia 23.7931 0 0
lfoot -23.3599 33.1691 0
ltoes -26.7615 0 0
rfemur -66.3214 -16.3813 8.30861
rtibia 79.3225 0 0
rfoot -14.2636 13.2081 0
rtoes 10.1582 0 0
lowerback 8.40914 4.89058 -11.6943
upperback -2.57162 5.17394 -1.17575
thorax -8.46346 3.09095 4.41678
lowerneck 0.553975 -11.6349 -11.3675
upperneck 3.2208 -15.8159 9.26617
head 2.50468 -7.9078 4.02246
lclavicle -4.1869e-14 -3.57812e-15 0
lhumerus -70.2204 -19.9544 106.459
lradius 100.279 0 0
lwrist 51.0973 0 0
lhand -9.84827 42.9166 0
lfingers 7.12502 0 0
lthumb 16.1298 72.2654 0
rclavicle -4.1869e-14 -3.57812e-15 0
rhumerus 49.2299 -3.82067 -59.519
rradius 19.9761 0 0
rwrist 18.3642 0 0
rhand -21.6774 -33.1399 0
rfingers 7.12502 0 0
rthumb 4.72027 -63.0674 0
412
root 7.12532 13.7941 -34.2774 159.608 75.1835 153.448
lfemur 18.3396 -2.78814 -10.2247
ltibia 24.3461 0 0
lfoot -23.3524 33.0572 0
ltoes -26.8171 0 0
rfemur -66.1863 -16.2652 8.27255
rtibia 79.0414 0 0
rfoot -14.0963 13.1249 0
rtoes 9.93257 0 0
lowerback 8.48535 4.85375 -11.6193
upperback -2.53915 5.13362 -1.12646
thorax -8.46316 3.06823 4.43458
lowerneck 0.597305 -11.6548 -11.3824
upperneck 3.17897 -15.846 9.33046
head 2.49597 -7.92415 4.04519
lclavicle -4.11381e-14 -4.04506e-15 0
lhumerus -70.0827 -20.2129 106.412
lradius 100.289 0 0
lwrist 51.0246 0 0
lhand -9.78498 42.9121 0
lfingers 7.12502 0 0
lthumb 16.1907 72.2559 0
rclavicle -4.11381e-14 -4.04506e-15 0
rhumerus 49.0045 -3.7405 -59.2692
rradius 20.4602 0 0
rwrist 17.6093 0 0
rhand -21.4556 -33.276 0
rfingers 7.12502 0 0
rthumb 4.93415 -63.1912 0
413
root 7.06435 13.8034 -34.2977 159.866 75.1965 153.782
lfemur 17.9897 -2.97263 -10.1491
ltibia 24.9806 0 0
lfoot -23.3397 32.9294 0
ltoes -26.8852 0 0
rfemur -66.0483 -16.1324 8.22407
rtibia 78.7056 0 0
rfoot -13.8964 13.0495 0
rtoes 9.66244 0 0
lowerback 8.57425 4.8146 -11.5348
upperback -2.50089 5.09083 -1.07304
thorax -8.46309 3.04379 4.45147
lowerneck 0.643839 -11.6764 -11.3959
upperneck 3.13114 -15.8784 9.39942
head 2.48521 -7.94161 4.06944
lclavicle -4.01274e-14 -4.46343e-15 0
lhumerus -69.9606 -20.4951 106.364
lradius 100.312 0 0
lwrist 50.9552 0 0
lhand -9.72158 42.9076 0
lfingers 7.12502 0 0
lthumb 16.2518 72.2464 0
rclavicle -4.01274e-14 -4.46343e-15 0
rhumerus 48.7324 -3.67143 -59.0037
rradius 20.9765 0 0
rwrist 16.7656 0 0
rhand -21.2167 -33.4453 0
rfingers 7.12502 0 0
rthumb 5.16456 -63.3482 0
414
root 7.00337 13.8128 -34.318 160.078 75.2234 154.082
lfemur 17.6116 -3.19947 -10.0553
ltibia 25.6926 0 0
lfoot -23.3222 32.7866 0
ltoes -26.9646 0 0
rfemur -65.907 -15.9836 8.16395
rtibia 78.3179 0 0
rfoot -13.6658 12.9812 0
rtoes 9.3504 0 0
lowerback 8.67522 4.77318 -11.4412
upperback -2.45713 5.0456 -1.01566
thorax -8.46327 3.01768 4.46754
lowerneck 0.693469 -11.6997 -11.4082
upperneck 3.07758 -15.913 9.47296
head 2.47252 -7.96015 4.09518
lclavicle -3.88512e-14 -4.83505e-15 0
lhumerus -69.8524 -20.8 106.315
lradius 100.346 0 0
lwrist 50.8884 0 0
lhand -9.65807 42.9031 0
lfingers 7.12502 0 0
lthumb 16.3129 72.2369 0
rclavicle -3.88512e-14 -4.83505e-15 0
rhumerus 48.4166 -3.61246 -58.7229
rradius 21.524 0 0
rwrist 15.8379 0 0
rhand -20.9613 -33.646 0
rfingers 7.12502 0 0
rthumb 5.41086 -63.5362 0
415
root 6.94239 13.8222 -34.3383 160.249 75.2628 154.355
lfemur 17.2061 -3.46569 -9.94488
ltibia 26.4779 0 0
lfoot -23.3001 32.6297 0
ltoes -27.0541 0 0
rfemur -65.762 -15.8196 8.09297
rtibia 77.8816 0 0
rfoot -13.4062 12.919 0
rtoes 8.99907 0 0
lowerback 8.78763 4.72957 -11.339
upperback -2.4082 4.99801 -0.954501
thorax -8.46369 2.98996 4.48289
lowerneck 0.746087 -11.7248 -11.4194
upperneck 3.01855 -15.9497 9.55095
head 2.45802 -7.97978 4.12237
lclavicle -3.73238e-14 -5.16168e-15 0
lhumerus -69.7562 -21.1269 106.266
lradius 100.39 0 0
lwrist 50.8237 0 0
lhand -9.59447 42.8986 0
lfingers 7.12502 0 0
lthumb 16.3742 72.2273 0
rclavicle -3.73238e-14 -5.16168e-15 0
rhumerus 48.06 -3.5626 -58.4274
rradius 22.1022 0 0
rwrist 14.8308 0 0
rhand -20.6902 -33.8757 0
rfingers 7.12502 0 0
rthumb 5.67243 -63.7531 0
